<svg width="48" height="35" viewBox="0 0 48 35" xmlns:xlink="http://www.w3.org/1999/xlink" xmlns="http://www.w3.org/2000/svg">
  <radialGradient xlink:href="#linearGradient1363" id="radialGradient1349" cx="393.75772" cy="473.98447" fx="393.75772" fy="473.98447" r="3.4996512" gradientTransform="matrix(1.1592997,5.7937931e-6,-3.1107723e-6,0.62244498,-62.726954,178.96117)" gradientUnits="userSpaceOnUse" />
    <linearGradient id="linearGradient1363">
      <stop style="stop-color:#e9d593;stop-opacity:1;" offset="0" id="stop1361" />
      <stop style="stop-color:#b9ab10;stop-opacity:1;" offset="1" id="stop1359" />
    </linearGradient>
  <radialGradient xlink:href="#linearGradient1363" id="radialGradient1351" cx="393.71497" cy="473.71396" fx="393.71497" fy="473.71396" r="3.4996512" gradientTransform="matrix(1,0,0,0.9523839,0,22.556412)" gradientUnits="userSpaceOnUse" />
  <radialGradient xlink:href="#linearGradient1363" id="radialGradient1351-4" cx="393.71497" cy="473.71396" fx="393.71497" fy="473.71396" r="3.4996512" gradientTransform="matrix(1,0,0,0.9523839,0,22.556412)" gradientUnits="userSpaceOnUse" />
  <radialGradient xlink:href="#linearGradient1363" id="radialGradient1355" cx="393.71497" cy="473.71396" fx="393.71497" fy="473.71396" r="3.4996512" gradientTransform="matrix(1,0,0,0.9523839,0,22.556412)" gradientUnits="userSpaceOnUse" />
  <radialGradient xlink:href="#linearGradient1363" id="radialGradient1355-5" cx="393.71497" cy="473.71396" fx="393.71497" fy="473.71396" r="3.4996512" gradientTransform="matrix(1,0,0,0.9523839,0,22.556412)" gradientUnits="userSpaceOnUse" />
  <linearGradient xlink:href="#linearGradient1088" id="linearGradient1090" x1="395.02112" y1="532.90918" x2="395.09781" y2="487.67712" gradientUnits="userSpaceOnUse" gradientTransform="matrix(0.44224105,0,0,0.45343088,-150.53544,-212.62908)" />
  <linearGradient id="linearGradient1088">
    <stop style="stop-color:#26338b;stop-opacity:1;" offset="0" id="stop1084" />
    <stop style="stop-color:#107de6;stop-opacity:1;" offset="1" id="stop1086" />
  </linearGradient>
  <path d="m 14.188995,5.3959126 c -0.99302,0.004 -2.65614,1.71684 -2.72082,2.62139 0.26103,3.6021004 1.44327,6.7920804 2.48157,8.7090704 l -6.86511,-1.5011 c 6.7945,3.51677 13.69091,2.25427 16.25927,18.6925 0.1412,0.95378 1.19828,0.91705 1.30427,-0.0186 1.79722,-16.32827 11.11835,-15.67804 15.77298,-18.5207 l -6.13006,1.28412 c 1.12371,-3.43106 1.65051,-4.85503 2.07733,-7.3133404 0.21269,-1.54322 -1.26632,-3.87697 -2.47984,-3.83733 -0.79266,0.0509 -1.44255,0.70261 -1.91493,1.19645 -0.46025,0.52751 0.54659,1.44454 0.98295,1.94391 0.4378,0.35775 1.09968,0.072 1.5988,-0.51276 -1.75874,1.9264404 -0.18164,7.6950404 -10.52741,7.7508304 -8.0926,-0.19811 -8.69126,-2.76153 -10.50495,-7.8597704 0.72014,1.07139 1.53383,1.04463 1.95467,0.25063 0.26095,-0.50101 0.82904,-1.03059 0.62449,-1.43113 -0.42138,-0.91401 -1.14526,-1.44851 -1.91321,-1.45418 z m 9.85973,3.37682 c -1.45471,-2.3e-4 -2.71456,0.87577 -2.707,2.6878204 -0.009,2.20294 1.32173,3.64064 2.63704,3.64427 1.36807,0.005 2.65429,-1.75528 2.65517,-3.716 0.004,-1.4855604 -0.89979,-2.6120104 -2.58521,-2.6160904 z m 23.7195,5.0036804 c -0.0787,-0.003 -0.17819,0.0229 -0.29886,0.0815 0,0 -17.30553,4.59941 -19.55708,11.65282 l -2.8236,9.33873 c 1.27969,-1.50698 2.69576,-3.79325 4.03199,-4.23321 l 11.7358,-2.55054 c 1.54002,-0.35862 2.97763,-2.57613 1.95813,-2.37432 0,0 -11.05364,1.4751 -15.01115,4.15793 0.67903,-1.18323 1.55881,-2.45352 3.01795,-3.03498 l 12.27565,-3.85682 c 1.5622,-0.53265 2.68283,-2.88877 1.58152,-2.58155 0,0 -12.92916,3.42392 -15.48274,5.56074 1.1432,-1.40626 2.04006,-2.94727 4.12268,-3.83823 l 11.70989,-4.57681 c 2.33796,-1.04108 3.50045,-3.71787 2.73982,-3.74524 z m -47.53573,0.15055 c -0.76301,0.0274 0.40318,2.70328 2.74845,3.74435 l 11.74703,4.57682 c 2.08914,0.89096 2.98886,2.43197 4.13565,3.83823 -2.56157,-2.13681 -15.53199,-5.56073 -15.53199,-5.56073 -1.10476,-0.30722 0.0196,2.04978 1.58671,2.58242 l 12.31452,3.85594 c 1.4637,0.58146 2.3463,1.85264 3.02745,3.03586 -3.96989,-2.68282 -15.05866,-4.15793 -15.05866,-4.15793 -1.02269,-0.20181 0.42021,2.01571 1.96504,2.37432 l 11.77208,2.54966 c 1.34041,0.43996 2.76126,2.72711 4.04495,4.23409 l -2.83311,-9.33961 c -2.25858,-7.05341 -19.6184,-11.65282 -19.6184,-11.65282 -0.12106,-0.0586 -0.22079,-0.0834 -0.29972,-0.0806 z" fill="url(#linearGradient1090)" />
  <g transform="matrix(0.40203732,0,0,0.4122099,-134.59917,-193.14714)">
    <path d="m 395.8602,477.04697 -2.15626,-1.55607 -2.16955,1.53749 0.81359,-2.53158 -2.13266,-1.58825 2.65908,-0.009 0.85149,-2.51908 0.82982,2.5263 2.65891,0.0314 -2.14623,1.56987 z" transform="matrix(1.771561,0,0,1.771561,-302.40884,-364.7427)" fill="url(#radialGradient1349)" />
    <path d="m 395.8602,477.04697 -2.15626,-1.55607 -2.16955,1.53749 0.81359,-2.53158 -2.13266,-1.58825 2.65908,-0.009 0.85149,-2.51908 0.82982,2.5263 2.65891,0.0314 -2.14623,1.56987 z" transform="matrix(1.0217682,0.27378196,-0.27378196,1.0217682,132.3613,-115.11418)" fill="url(#radialGradient1351)" />
    <path d="m 395.8602,477.04697 -2.15626,-1.55607 -2.16955,1.53749 0.81359,-2.53158 -2.13266,-1.58825 2.65908,-0.009 0.85149,-2.51908 0.82982,2.5263 2.65891,0.0314 -2.14623,1.56987 z" transform="matrix(1.0217682,-0.27378197,0.27378197,1.0217682,-146.32683,100.41138)" fill="url(#radialGradient1351-4)" />
    <path d="m 395.8602,477.04697 -2.15626,-1.55607 -2.16955,1.53749 0.81359,-2.53158 -2.13266,-1.58825 2.65908,-0.009 0.85149,-2.51908 0.82982,2.5263 2.65891,0.0314 -2.14623,1.56987 z" transform="matrix(0.54042004,0.54042004,-0.54042004,0.54042004,454.31441,10.579151)" fill="url(#radialGradient1355)" />
    <path d="m 395.8602,477.04697 -2.15626,-1.55607 -2.16955,1.53749 0.81359,-2.53158 -2.13266,-1.58825 2.65908,-0.009 0.85149,-2.51908 0.82982,2.5263 2.65891,0.0314 -2.14623,1.56987 z" transform="matrix(0.54042004,0.54042004,-0.54042004,0.54042004,422.52689,11.003368)" fill="url(#radialGradient1355-5)" />
  </g>
</svg>