<?xml version="1.0" encoding="UTF-8" standalone="no"?>
<svg
   width="192"
   height="215"
   viewBox="0 0 192 215"
   xml:space="preserve"
   version="1.1"
   id="svg50"
   xmlns:xlink="http://www.w3.org/1999/xlink"
   xmlns="http://www.w3.org/2000/svg">
    <linearGradient
   id="linearGradient1391">
        <stop
   style="stop-color:#e9d593;stop-opacity:1;"
   offset="0"
   id="stop1387" />
        <stop
   style="stop-color:#b9ab10;stop-opacity:1;"
   offset="1"
   id="stop1389" />
    </linearGradient>
    <linearGradient
   id="linearGradient1385">
        <stop
   style="stop-color:#e9d593;stop-opacity:1;"
   offset="0"
   id="stop1381" />
        <stop
   style="stop-color:#b9ab10;stop-opacity:1;"
   offset="1"
   id="stop1383" />
    </linearGradient>
    <linearGradient
   id="linearGradient1379">
        <stop
   style="stop-color:#e9d593;stop-opacity:1;"
   offset="0"
   id="stop1375" />
        <stop
   style="stop-color:#b9ab10;stop-opacity:1;"
   offset="1"
   id="stop1377" />
    </linearGradient>
    <linearGradient
   id="linearGradient1363">
        <stop
   style="stop-color:#e9d593;stop-opacity:1;"
   offset="0"
   id="stop1361" />
        <stop
   style="stop-color:#b9ab10;stop-opacity:1;"
   offset="1"
   id="stop1359" />
    </linearGradient>
    <linearGradient
   id="linearGradient1088">
    <stop
   style="stop-color:#26338b;stop-opacity:1;"
   offset="0"
   id="stop1084" />
        <stop
   style="stop-color:#107de6;stop-opacity:1;"
   offset="1"
   id="stop1086" />
    </linearGradient>
    <linearGradient
   xlink:href="#linearGradient1088"
   id="linearGradient1090"
   x1="395.02112"
   y1="532.90918"
   x2="395.09781"
   y2="487.67712"
   gradientUnits="userSpaceOnUse"
   gradientTransform="matrix(1.1,0,0,1.1,-39.638779,-47.262164)" />
    <radialGradient
   xlink:href="#linearGradient1363"
   id="radialGradient1349"
   cx="393.75772"
   cy="473.98447"
   fx="393.75772"
   fy="473.98447"
   r="3.4996512"
   gradientTransform="matrix(1.1592997,5.7937931e-6,-3.1107723e-6,0.62244498,-62.726954,178.96117)"
   gradientUnits="userSpaceOnUse" />
    <radialGradient
   xlink:href="#linearGradient1379"
   id="radialGradient1351"
   cx="393.71497"
   cy="473.71396"
   fx="393.71497"
   fy="473.71396"
   r="3.4996512"
   gradientTransform="matrix(1,0,0,0.9523839,0,22.556412)"
   gradientUnits="userSpaceOnUse" />
    <radialGradient
   xlink:href="#linearGradient1385"
   id="radialGradient1355"
   cx="393.71497"
   cy="473.71396"
   fx="393.71497"
   fy="473.71396"
   r="3.4996512"
   gradientTransform="matrix(1,0,0,0.9523839,0,22.556412)"
   gradientUnits="userSpaceOnUse" />
    <radialGradient
   xlink:href="#linearGradient1391"
   id="radialGradient1351-4"
   cx="393.71497"
   cy="473.71396"
   fx="393.71497"
   fy="473.71396"
   r="3.4996512"
   gradientTransform="matrix(1,0,0,0.9523839,0,22.556412)"
   gradientUnits="userSpaceOnUse" />
    <radialGradient
   xlink:href="#linearGradient1391"
   id="radialGradient1355-5"
   cx="393.71497"
   cy="473.71396"
   fx="393.71497"
   fy="473.71396"
   r="3.4996512"
   gradientTransform="matrix(1,0,0,0.9523839,0,22.556412)"
   gradientUnits="userSpaceOnUse" />
    
    <g
   transform="matrix(1.2965444,0,0,1.3031941,-410.22715,-585.17189)"
   id="g30">
        <path
   d="m 396.95898,449.0293 c -19.38684,-0.0566 -39.74375,6.96357 -57.46093,23.91015 26.2371,-23.11185 82.83042,-29.42783 113.09961,17.71094 l 11.88867,-4.9043 C 451.55748,464.31432 425.29359,449.11208 396.95898,449.0293 Z m 6.94141,72.32226 c -5.81453,-0.1765 -12.11069,4.20339 -14.8418,4.76563 -11.14298,2.54969 -12.12979,9.35456 -16.54882,14.7539 -2.962,3.67688 3.62403,7.43213 7.97265,3.23047 3.68795,-3.4268 7.74368,-7.53576 12.38672,-8.07617 1.68039,-0.34948 8.31417,-1.10279 9.16602,-0.45898 l 27.00195,29.4082 16.00586,-8.76758 -10.28906,-33.93945 c -16.06713,5.32379 -24.29861,-0.91844 -30.85352,-0.91602 z m -47.63477,36.77735 c -2.29493,0.16728 -4.44617,2.07366 -5.28515,4.68164 -1.04284,3.24481 0.2741,6.46999 2.94336,7.20507 2.66961,0.7348 5.68072,-1.30008 6.72461,-4.54492 1.0442,-3.24572 -0.27494,-6.47214 -2.94532,-7.20703 -0.46059,-0.12595 -0.94506,-0.17137 -1.4375,-0.13476 z m 10.24415,2.4375 c -1.80136,-0.0638 -3.67496,0.89138 -4.36329,2.99414 l -2.82031,10.52539 c -1.47054,6.05109 6.57977,7.84858 8.1543,2.16601 l 2.95898,-10.66797 c 0.58495,-3.17019 -1.61365,-4.93566 -3.92968,-5.01757 z m 9.89843,1.75 c -1.90626,-0.0489 -3.82291,0.83982 -4.46679,2.72461 l -3.73633,11.87304 c -1.92646,6.97541 6.67969,8.93636 8.83008,2.89063 l 3.68164,-11.43946 c 1.2451,-3.90169 -1.52252,-5.97716 -4.3086,-6.04882 z m 8.32813,4.63086 c -1.44529,0.009 -2.76459,0.70021 -3.26953,2.20117 l -3.92774,11.43945 c -1.58226,5.12679 7.32974,8.74432 9.16602,2.69922 l 2.91015,-9.80273 c 1.10103,-4.08259 -2.11972,-6.55405 -4.8789,-6.53711 z"
   fill="#26338b"
   id="path24" />
        <path
   d="m 392.06641,518.73828 c -1.06504,-0.0121 -2.10975,0.14047 -3.01368,0.47852 l -21.03125,7.27343 -3.84375,-0.19531 -8.93359,-5.12695 -10.81836,36.38281 5.2793,2.42383 c 4.24482,-6.57617 10.51348,-4.74364 13.04297,-0.66406 3.43462,-2.15737 7.49567,-1.63684 9.61328,1.73242 6.65732,-3.48155 10.46773,0.93922 11.17969,3.86719 3.83231,-1.2283 10.50281,1.27664 8.51367,8.98828 l 10.32812,8.67773 c 5.27613,4.79235 10.31588,-1.01243 6.99219,-4.25781 l -10.30273,-9.62109 c -0.80846,-0.78984 0.50359,-2.05165 1.30859,-1.35157 l 11.38672,10.3125 c 4.7039,4.33444 10.43144,-1.96624 7.89258,-4.89062 l -13.54688,-14.90039 c -0.67123,-0.76225 0.65966,-1.86327 1.32617,-1.16992 l 13.8418,14.98437 c 4.6729,4.51716 11.58598,-0.22951 7.5918,-4.68555 l -27.55078,-29.45117 c -7.78258,-1.49755 -13.31404,1.86242 -18.35157,7.39063 -6.78038,6.95821 -16.05343,-1.01656 -12.47851,-5.51172 2.51669,-2.8928 8.57094,-12.7058 11.63867,-13.65039 4.62844,-1.4174 11.45435,-4.84803 14.86133,-5.69727 -1.31889,-0.83927 -3.15072,-1.31814 -4.92578,-1.33789 z m -75.66602,16.53125 c 5.17643,88.69727 102.80335,95.30563 138.69336,55.16992 -60.5889,45.42381 -122.89496,-3.77216 -124.18359,-51.46093 z m 75.24023,39.85156 -2.07617,7.85352 6.1875,4.16406 c 3.55854,1.9704 7.49901,-1.70307 4.97461,-4 z"
   fill="#107de6"
   id="path26" />
        <path
   d="m 370.08544,481.65523 c -2.46998,0.01 -6.6067,4.16497 -6.76758,6.35937 0.64927,8.7385 3.58987,16.47722 6.17247,21.12775 l -17.07579,-3.64161 c 16.90017,8.5315 34.05383,5.46877 40.44218,45.34707 0.35121,2.31381 2.98053,2.22471 3.24415,-0.0451 4.47029,-39.61154 27.65502,-38.03412 39.23262,-44.93027 l -15.24747,3.11523 c 2.79503,-8.3236 4.10536,-11.77805 5.167,-17.7418 0.52904,-3.74377 -3.14975,-9.40532 -6.16817,-9.30918 -1.97161,0.12355 -3.58811,1.70451 -4.76308,2.90255 -1.14479,1.27969 1.35956,3.50436 2.44492,4.71581 1.08897,0.86788 2.73526,0.17487 3.97676,-1.24393 -4.37459,4.67346 -0.45181,18.66777 -26.18516,18.80312 -20.12898,-0.48059 -21.61805,-6.69933 -26.1293,-19.06739 1.79123,2.59914 3.81516,2.53421 4.86191,0.60802 0.64908,-1.21545 2.0621,-2.50016 1.55332,-3.47188 -1.0481,-2.21732 -2.84864,-3.51399 -4.75878,-3.52774 z m 24.52441,8.19199 c -3.61834,-7.6e-4 -6.75201,2.12457 -6.7332,6.52051 -0.0227,5.34421 3.28758,8.83202 6.55918,8.84082 3.40284,0.0122 6.6021,-4.25822 6.6043,-9.01484 0.009,-3.60389 -2.23808,-6.33659 -6.43028,-6.34649 z m 58.99825,12.13868 c -0.19572,-0.007 -0.44321,0.0554 -0.74336,0.19765 0,0 -43.04458,11.15795 -48.64493,28.26914 l -7.02323,22.65528 c 3.183,-3.65584 6.70523,-9.20224 10.02889,-10.26953 l 29.19082,-6.1875 c 3.83055,-0.86997 7.40636,-6.24955 4.87052,-5.75997 0,0 -27.49408,3.57853 -37.3377,10.08692 1.68896,-2.87047 3.87726,-5.95209 7.50664,-7.3627 l 30.5336,-9.35645 c 3.88572,-1.29217 6.6731,-7.00798 3.93378,-6.26269 0,0 -32.15912,8.30626 -38.51073,13.49005 2.84353,-3.41151 5.07433,-7.14993 10.25448,-9.31134 l 29.12637,-11.10312 c 5.8153,-2.52559 8.70678,-9.01936 6.81485,-9.08574 z m -118.23711,0.36523 c -1.89785,0.0664 1.00285,6.558 6.83632,9.08359 l 29.21875,11.10313 c 5.19637,2.16141 7.43429,5.89983 10.28673,9.31132 -6.37149,-5.18377 -38.63321,-13.49003 -38.63321,-13.49003 -2.7479,-0.74529 0.0488,4.97268 3.94668,6.26484 l 30.63028,9.3543 c 3.64071,1.4106 5.83602,4.49439 7.53027,7.36484 -9.87442,-6.50838 -37.45586,-10.08691 -37.45586,-10.08691 -2.54377,-0.48959 1.04518,4.88999 4.8877,5.75996 l 29.28105,6.18535 c 3.33406,1.0673 6.86817,6.61584 10.06113,10.27168 l -7.04688,-22.65742 c -5.61784,-17.1112 -48.79746,-28.26914 -48.79746,-28.26914 -0.3011,-0.14218 -0.54917,-0.20238 -0.7455,-0.19551 z"
   fill="url(#linearGradient1090)"
   id="path28"
   style="fill:url(#linearGradient1090)" />
    </g>
    <g
   transform="matrix(1.2965444,0,0,1.3031941,-410.22715,-585.17189)"
   id="g42">
    <path
   d="m 395.8602,477.04697 -2.15626,-1.55607 -2.16955,1.53749 0.81359,-2.53158 -2.13266,-1.58825 2.65908,-0.009 0.85149,-2.51908 0.82982,2.5263 2.65891,0.0314 -2.14623,1.56987 z"
   transform="matrix(1.771561,0,0,1.771561,-302.40884,-364.7427)"
   fill="url(#radialGradient1349)"
   id="path32"
   style="fill:url(#radialGradient1349)" />
    <path
   d="m 395.8602,477.04697 -2.15626,-1.55607 -2.16955,1.53749 0.81359,-2.53158 -2.13266,-1.58825 2.65908,-0.009 0.85149,-2.51908 0.82982,2.5263 2.65891,0.0314 -2.14623,1.56987 z"
   transform="matrix(1.0217682,0.27378196,-0.27378196,1.0217682,132.3613,-115.11418)"
   fill="url(#radialGradient1351)"
   id="path34"
   style="fill:url(#radialGradient1351)" />
    <path
   d="m 395.8602,477.04697 -2.15626,-1.55607 -2.16955,1.53749 0.81359,-2.53158 -2.13266,-1.58825 2.65908,-0.009 0.85149,-2.51908 0.82982,2.5263 2.65891,0.0314 -2.14623,1.56987 z"
   transform="matrix(1.0217682,-0.27378197,0.27378197,1.0217682,-146.32683,100.41138)"
   fill="url(#radialGradient1351-4)"
   id="path36"
   style="fill:url(#radialGradient1351-4)" />
    <path
   d="m 395.8602,477.04697 -2.15626,-1.55607 -2.16955,1.53749 0.81359,-2.53158 -2.13266,-1.58825 2.65908,-0.009 0.85149,-2.51908 0.82982,2.5263 2.65891,0.0314 -2.14623,1.56987 z"
   transform="matrix(0.54042004,0.54042004,-0.54042004,0.54042004,454.31441,10.579151)"
   fill="url(#radialGradient1355)"
   id="path38"
   style="fill:url(#radialGradient1355)" />
    <path
   d="m 395.8602,477.04697 -2.15626,-1.55607 -2.16955,1.53749 0.81359,-2.53158 -2.13266,-1.58825 2.65908,-0.009 0.85149,-2.51908 0.82982,2.5263 2.65891,0.0314 -2.14623,1.56987 z"
   transform="matrix(0.54042004,0.54042004,-0.54042004,0.54042004,422.52689,11.003368)"
   fill="url(#radialGradient1355-5)"
   id="path40"
   style="fill:url(#radialGradient1355-5)" />
    </g>
    <g
   transform="matrix(1.2965444,0,0,1.3031941,-203.5132,158.66461)"
   id="g48"><text
   xml:space="preserve"
   id="text2638-3"
   style="font-style:normal;font-variant:normal;font-weight:bold;font-stretch:normal;font-size:21.3333px;font-family:Corbel;-inkscape-font-specification:'Corbel, Bold';font-variant-ligatures:normal;font-variant-caps:normal;font-variant-numeric:normal;font-variant-east-asian:normal;text-align:center;white-space:pre;shape-inside:url(#rect2640-3);fill:#000000;fill-opacity:1;stroke:none;stroke-width:0;stroke-linecap:square;stroke-miterlimit:3;stroke-dasharray:none;paint-order:markers stroke fill"
   x="166.09683"
   y="0"
   transform="translate(184.11145,34.532324)"><tspan
     x="0"
     y="0"
     id="tspan503">COACHING</tspan></text><text
   xml:space="preserve"
   id="text2638"
   style="font-style:normal;font-variant:normal;font-weight:bold;font-stretch:normal;font-size:21.3333px;font-family:Corbel;-inkscape-font-specification:'Corbel, Bold';font-variant-ligatures:normal;font-variant-caps:normal;font-variant-numeric:normal;font-variant-east-asian:normal;text-align:center;white-space:pre;shape-inside:url(#rect2640);opacity:1;fill:#000000;fill-opacity:1;stroke:none;stroke-width:0;stroke-linecap:square;stroke-miterlimit:3;stroke-dasharray:none;paint-order:markers stroke fill"
   x="166.09683"
   y="0"
   transform="translate(183.34433,-102.77677)"><tspan
     x="0"
     y="0"
     id="tspan505">PERSONAL</tspan></text>
    </g>
</svg>
