<svg width="250" height="250" viewBox="0 0 250 250" xmlns:xlink="http://www.w3.org/1999/xlink" xmlns="http://www.w3.org/2000/svg">
  <defs
     id="defs6">
    <linearGradient
       id="linearGradient1701">
      <stop
         style="stop-color:#f0e476;stop-opacity:1;"
         offset="0"
         id="stop1699" />
      <stop
         style="stop-color:#f5ac38;stop-opacity:1;"
         offset="0.24511357"
         id="stop1707" />
      <stop
         style="stop-color:#e96915;stop-opacity:1;"
         offset="0.58077204"
         id="stop1705" />
      <stop
         style="stop-color:#ad141e;stop-opacity:1;"
         offset="1"
         id="stop1697" />
    </linearGradient>
    <linearGradient
       id="linearGradient1518">
      <stop
         style="stop-color:#dd6414;stop-opacity:1;"
         offset="0.67951316"
         id="stop1514" />
      <stop
         style="stop-color:#d59545;stop-opacity:1;"
         offset="1"
         id="stop1516" />
    </linearGradient>
    <linearGradient
       xlink:href="#linearGradient1518"
       id="linearGradient1520"
       x1="210.05968"
       y1="421.21249"
       x2="211.13451"
       y2="12.323524"
       gradientUnits="userSpaceOnUse"
       gradientTransform="matrix(0.61099395,0,0,0.6098422,-3.4528793,-7.6356159)" />
    <linearGradient
       xlink:href="#linearGradient1701"
       id="linearGradient1703"
       x1="101.97002"
       y1="211.2494"
       x2="316.00961"
       y2="247.52826"
       gradientUnits="userSpaceOnUse"
       gradientTransform="matrix(0.6082623,0,0,0.6082623,-3.4302723,-6.9609989)" />
  </defs>
  <circle
     style="display:inline;fill:#000000;fill-opacity:1;stroke:url(#linearGradient1520);stroke-width:15.2604;stroke-linecap:square;stroke-miterlimit:3;stroke-dasharray:none;stroke-opacity:1;paint-order:markers stroke fill"
     id="path1489"
     cx="125"
     cy="125"
     r="117.3698" />
  <path
     d="m 153.17246,69.564607 c 4.79617,-0.72444 7.5449,4.24797 9.90083,9.23745 0.40427,0.83903 0.91498,1.14996 1.79357,1.4669 3.2806,1.10027 10.61088,24.772333 12.52336,26.814803 8.81495,9.89039 14.69018,19.60143 15.64675,21.87831 2.0411,5.196 1.52489,15.0737 -0.67518,19.80941 -3.68314,7.15659 -14.2311,7.14003 -15.81622,8.50979 -2.58137,2.41702 -5.27518,3.11226 -8.35846,3.87215 -2.92078,3.74591 -4.19665,4.82355 -7.50266,6.03365 -1.33342,0.48512 -1.06735,4.26876 -3.61528,5.84506 -2.83059,1.50646 -6.19587,2.74565 -8.98864,1.04134 -0.9361,-0.40738 -7.3338,-0.82057 -8.2699,-0.0116 -1.8371,1.72064 -3.56388,0.97749 -5.34582,0.81584 -2.65862,-0.19936 -5.34179,1.13357 -8.46024,2.16582 -3.63385,1.07768 -9.98237,-3.17335 -10.41712,-7.09682 -0.43658,-4.03856 0.46656,-7.88247 2.96492,-11.62753 0.86164,-1.29388 -0.32173,-2.39186 -1.513,-0.99919 -3.16447,4.55209 -9.61613,8.21108 -14.72978,5.83256 -0.75648,-0.4489 -2.455883,-0.0301 -3.351093,0.84667 -4.9892,5.17401 -13.57311,4.56937 -19.9965,2.07588 -11.33544,-4.66639 -17.3285,-34.69986 -19.98856,-54.36367 -0.65725,-4.17569 0.45381,-9.74952 4.65025,-9.78458 3.0616,-0.19568 6.56454,-0.57772 8.6883,-2.488123 5.95352,-5.82366 6.74419,-9.93713 7.51103,-15.09877 0.35792,-2.37537 3.34241,-3.96856 6.30028,-3.97901 l 8.85855,-0.0548 c 5.219403,-0.13205 10.851553,-5.72576 12.626163,-10.61733 1.30668,-3.95405 11.03031,-4.92812 16.21001,-2.56244 3.90735,2.03016 8.05993,4.17174 11.70923,5.8238 1.62412,0.68078 3.9114,0.48534 5.69156,-0.0477 5.17114,-1.71035 6.99258,-2.44358 11.95365,-3.33787 z M 87.214127,158.45807 c -2.21055,-0.5061 -6.23624,-5.63689 -6.25921,-8.35154 l -2.22615,-52.688173 c -2.41548,3.029323 -4.36804,4.633503 -6.73129,5.999303 -2.27507,1.28632 -4.3941,2.53957 -6.98125,1.62894 -1.58186,-0.34688 -3.10825,2.12904 -2.87441,4.5645 1.59784,12.91563 5.42438,34.0718 10.75516,45.22698 2.82503,5.29651 7.66517,7.78061 10.71692,5.83359 z M 103.4201,80.668567 c -3.642373,4.01173 -8.367213,3.98182 -12.684903,3.03117 -3.14061,-0.56457 -7.38321,1.81165 -7.7514,4.53462 -1.80495,17.062803 3.32944,38.980343 2.78873,57.587833 -0.11032,4.90712 4.44387,7.62143 8.00953,7.87861 3.99424,0.24139 7.287323,-0.97295 9.595503,-4.02523 -9.569103,-11.82811 -1.01918,-33.60271 -1.81468,-59.318473 -0.0612,-1.78635 0.75048,-6.5465 2.3541,-6.83569 1.06287,-0.18997 0.15894,-3.60138 -0.49688,-2.85284 z m 29.32186,-4.5599 c -3.23034,0.0481 -7.38752,-5.1199 -10.7736,-6.06412 -2.30169,-0.47828 -6.93194,-0.14491 -9.04724,0.37422 -1.68513,0.5313 -3.41361,1.73641 -3.7383,4.45564 l -4.80316,52.901973 c -0.98917,7.74393 3.10031,16.28595 6.65404,18.4226 3.21016,1.83811 16.37566,-1.22783 15.82372,-7.85397 -3.17883,-30.51012 2.59618,-54.565633 5.88454,-62.236343 z m 57.14609,55.689823 c -4.48753,-10.40297 -13.16722,-15.30332 -17.24928,-24.79331 -2.67266,-6.00503 -4.74966,-14.624713 -8.42234,-20.206593 -2.6137,3.08871 -5.21773,5.18333 -7.86686,6.75064 -0.96621,0.47429 -1.7945,0.37978 -2.56762,0.0928 -0.56668,-0.19186 -1.05974,-1.10805 -0.41121,-1.60673 10.41704,-8.77124 2.93286,-20.96133 -3.16766,-18.03213 -2.33097,1.23844 -4.44129,1.64792 -6.60677,2.33603 -4.50654,1.62938 -7.56127,6.92641 -8.74054,11.22186 -2.59346,11.28133 -2.23997,22.222623 -2.23152,33.203733 -0.0861,10.6502 4.80541,17.77509 7.61968,17.50737 5.95676,-0.69343 9.30969,-1.8892 15.0002,-4.76936 2.17869,-1.10909 1.5817,2.56914 -2.08167,6.3654 -6.22546,5.42282 -17.67769,4.44168 -16.17468,6.60708 3.75109,5.55539 12.4733,9.97922 16.24331,4.67661 2.11198,-2.95897 4.91075,-5.11214 6.40704,-8.29416 0.27346,-0.842 -0.17091,-9.07712 -0.21049,-13.5698 0.036,-1.99766 0.44527,-2.59929 2.30288,-1.87379 1.80085,0.4259 3.31618,0.36396 4.69893,-1.09707 2.18984,-1.8337 4.76587,-1.47553 6.56954,-0.22482 1.697,1.06789 3.75084,2.42841 0.87921,2.64964 -4.4491,0.32844 -10.00654,4.00048 -9.72585,5.91166 1.32691,7.74192 -2.8806,14.21994 -8.06347,19.78274 -4.20986,4.14378 -13.24367,5.38208 -18.16198,-0.50176 -5.39676,0.20238 -8.29341,1.48588 -11.01807,2.84375 -2.19481,0.97957 -5.34899,3.13769 -4.19919,3.50489 3.19408,0.62746 5.31131,0.39933 7.91696,-1.10629 2.36009,-1.24273 5.70671,3.5e-4 8.37943,1.87451 1.36705,0.99451 3.43851,5.62373 4.97072,8.64604 0.51997,0.91698 2.95175,-0.49188 2.10992,-2.0526 l -3.43953,-5.78887 c -2.28325,-3.48528 0.26047,-3.00369 1.7261,-1.60451 1.19234,1.08646 7.11103,4.83349 10.22124,8.96151 1.7304,-3.04013 3.05283,-5.03208 5.87595,-8.07221 2.14545,-2.32947 16.44989,-8.31094 25.85773,-11.17639 1.47672,-0.60974 2.93618,-4.69059 1.89562,-8.32416 -2.01918,-6.9145 -3.76863,-9.52707 -6.27754,-13.73526 -0.49677,-0.93222 1.93674,-1.09408 2.5791,-0.20057 l 3.99943,5.16719 c 0.59885,0.80375 1.83907,0.18934 1.36328,-1.07308 z m -66.48698,31.99014 c -1.30103,0.11368 -4.08168,1.61928 -3.6712,2.18613 0.73666,1.23278 1.51456,3.32753 1.43711,4.87515 2.29001,3.67854 8.41396,1.52442 11.20559,-0.20144 1.89811,-1.36584 -1.10933,-9.06536 -2.78171,-8.54983 -1.97661,0.72578 -4.00326,1.46563 -6.18979,1.68999 z m 13.74456,1.58886 c -1.03252,-1.67188 -1.90875,-2.73073 -2.76847,-2.31092 -0.84389,0.55276 -0.41326,2.543 0.39268,3.8682 0.69485,1.10972 1.8618,2.85891 2.82315,2.35998 0.88058,-0.53737 0.21681,-2.96218 -0.44736,-3.91726 z"
     style="display:inline;fill:url(#linearGradient1703);fill-opacity:1;stroke:none;stroke-width:0;stroke-dasharray:none"
     id="path415" />
  <path
     id="path438-1-6"
     style="fill:#faf9f9;stroke:none;stroke-width:0;stroke-dasharray:none"
     d="m 118.79601,21.270926 c -0.64339,0.02452 -1.16814,0.305715 -1.14168,1.078715 l -0.007,11.648456 c -0.0327,1.0769 0.43539,1.52967 0.98368,1.50878 l 11.25641,0.0261 c 0.90116,0.05 3.29328,-3.7813 2.27029,-3.7957 l -9.33541,-0.11999 c -1.02302,-0.678591 -1.01621,-1.544722 0.0535,-1.937647 l 6.94868,0.09385 c 1.06638,-0.0076 2.16169,-3.0057 1.33533,-3.035371 l -8.36123,-0.03802 c -0.86432,-0.535493 -1.14135,-1.243621 -0.0142,-1.831915 l 7.51893,0.05227 c 1.06753,0.0019 1.95584,-3.685308 0.80904,-3.637694 z m -7.75535,0.389669 c -4.86933,0.397082 -13.678613,2.648748 -14.881043,3.461867 -2.98586,2.351804 -0.9698,8.448455 1.33294,7.718515 3.237133,-0.9559 7.330153,-1.45024 11.840933,-1.18564 l -0.62134,1.34365 -10.233533,2.52452 c -0.95895,0.21738 -3.01159,3.6884 -1.6454,3.4393 4.716533,-0.73303 8.348053,-0.9611 13.166743,-2.54116 2.77766,-0.81831 4.85923,-5.878731 1.64184,-7.983442 -1.7369,-1.073485 -7.52981,-0.08135 -11.685303,0.870812 -0.81205,0.160906 -0.10999,-1.551624 0.844693,-2.014869 l 8.47646,-2.231086 c 1.17601,-0.471031 3.01505,-3.438562 1.76301,-3.402467 z m -26.310913,8.695061 c -6.01177,-8.51e-4 -13.78155,5.033281 -13.81896,9.324711 -0.006,4.42534 2.23019,7.13022 6.07431,7.1055 5.74247,-0.0261 13.40364,-4.06104 13.46493,-8.99444 0.0256,-4.24725 -2.20656,-7.403752 -5.72028,-7.435771 z m -1.23435,4.544151 c 2.10101,-0.10551 2.28815,1.55401 2.40929,3.07814 0.14707,2.03033 -6.36497,5.57406 -8.20085,4.7568 -1.27044,-0.75276 -1.54599,-1.44779 -1.72499,-3.29199 -0.12451,-1.14935 2.92295,-3.89429 7.06986,-4.49781 0.15763,-0.0233 0.30663,-0.0381 0.44669,-0.0451 z m 100.562883,7.27063 c -0.43108,0.0102 -0.84122,0.077 -1.22247,0.20553 -4.18289,1.44469 -6.00438,4.4441 -4.72116,8.06779 1.90668,5.41676 8.22913,11.33158 12.91013,9.77259 4.02104,-1.36784 6.27139,-4.51074 5.15003,-7.84088 -1.78487,-5.14751 -7.94951,-10.30405 -12.11653,-10.20503 z m -120.711573,0.70687 c -1.84653,-0.024 -3.67646,0.79257 -4.50613,1.54798 l -7.40131,6.61485 c -0.61639,0.70594 0.11589,4.7328 1.22959,3.78145 l 8.69863,-7.6508 c 1.26063,-0.97087 2.92704,0.88762 1.9127,1.76419 l -7.72802,7.03066 c -1.61538,1.40381 -1.49713,2.46809 -0.53342,3.55691 l 2.58987,2.57323 c 0.64527,0.67486 1.12925,0.91216 1.80459,0.33621 l 1.50996,-1.22128 c 0.75802,-0.58794 0.55405,-1.21645 -0.0392,-1.8331 l -0.83399,-0.91001 c -0.42548,-0.40485 -0.58205,-0.60974 -0.1485,-1.04665 l 6.50318,-5.82957 c 1.64309,-1.39477 2.27975,-5.54173 0.0713,-7.56764 -0.90753,-0.8155 -2.0213,-1.13203 -3.12922,-1.14643 z m 121.878193,4.13785 c 1.41413,0.0985 4.37546,2.02091 6.06362,5.27596 1.17854,2.26058 -0.43574,3.03624 -1.92934,3.69115 -1.87,0.80438 -7.35313,-4.18603 -7.18272,-6.18835 0.2948,-1.44699 0.86106,-1.93394 2.54472,-2.70748 0.13064,-0.0618 0.3017,-0.0854 0.50372,-0.0713 z m 19.03434,11.33482 c -0.41129,-0.007 -0.77699,0.21556 -0.99794,0.7639 l -4.67007,12.81983 c -0.84828,2.12368 0.51326,4.29905 2.75856,4.45386 l 13.01824,0.0285 c 2.37085,0.0196 0.37749,-4.1778 -1.32225,-4.06657 l -6.93562,-0.0344 c -1.72856,0.0935 -3.216,-0.61671 -2.38078,-2.67541 l 2.71817,-7.68999 c 0.68298,-1.50308 -0.95446,-3.58023 -2.18831,-3.59968 z m -159.015463,2.59462 c -1.07502,-0.0179 -2.0712,0.34898 -2.73243,1.01575 -3.09147,3.10356 -8.62148,10.18121 -7.96087,11.66391 0.55967,1.1072 1.44705,3.02141 2.09447,2.24534 2.86516,-3.39689 5.7504,-6.82437 7.8088,-9.89615 0.5661,-0.76514 2.55705,1.25933 2.01963,1.89013 -2.49513,2.94888 -4.64103,5.8569 -7.00571,8.93623 -0.6323,0.98721 -0.23796,2.33522 0.47758,2.72767 l 4.78175,2.70393 2.2596,-3.2516 -2.84292,-1.80934 4.06776,-5.35437 3.7458,-0.36116 3.36208,-4.59285 -4.12597,0.35878 -1.30563,-0.78053 c 0.51519,-1.46016 -0.15082,-2.96698 -1.43749,-4.20437 -0.97706,-0.87074 -2.13142,-1.27346 -3.20645,-1.29137 z m 173.104103,20.96842 c -0.14638,0.002 -0.30707,0.0395 -0.48234,0.12117 l -10.72419,4.55009 c -1.00392,0.39105 -1.23752,0.99926 -1.00387,1.49571 l 4.37902,10.36897 c 0.30643,0.84893 4.76823,1.553023 4.38139,0.60589 l -3.54028,-8.63923 c 0.22441,-1.20694 1.02341,-1.54002 1.8034,-0.70924 l 2.63145,6.4319 c 0.4241,0.97842 3.61163,0.81372 3.31574,0.0416 l -3.23495,-7.70902 c 0.15479,-1.0049 0.69878,-1.53783 1.68103,-0.73062 l 2.89281,6.94155 c 0.41578,0.98323 4.1562,0.35846 3.66383,-0.67835 l -4.8067,-11.34077 c -0.20566,-0.43692 -0.51723,-0.75525 -0.95634,-0.74963 z m -188.726463,0.0642 c -1.28217,0.004 -1.16263,4.08621 0.53936,4.42178 2.86816,0.70921 3.95341,0.89413 5.96144,2.06714 1.81761,1.13485 0.3411,8.28595 -2.41879,8.46815 -2.29233,0.0798 -4.36548,-0.41775 -7.11263,-1.51591 -1.40514,-0.27235 -3.886,2.75853 -2.37959,3.58899 4.19167,2.128713 9.19454,3.203043 11.27068,2.016063 2.70096,-1.736933 4.06923,-4.002443 5.02885,-6.732473 0.96316,-2.85975 1.3485,-4.55878 -0.17582,-7.97037 -0.98984,-2.48892 -7.21025,-3.77103 -10.58519,-4.33031 -0.0443,-0.009 -0.087,-0.0132 -0.12831,-0.0131 z M 222.696,103.68814 c -0.39689,-0.01 -0.65743,0.11844 -0.63202,0.49659 0.27368,4.43544 0.55417,8.90581 1.18682,12.54897 0.11899,0.94432 -2.71873,0.85468 -2.76569,0.0273 -0.2322,-3.85584 -0.6885,-7.44024 -1.10485,-11.30037 -0.22447,-1.15065 -1.44018,-1.85333 -2.22871,-1.64302 l -5.32705,1.34721 0.61301,3.91212 3.30386,-0.65578 0.75677,6.68138 -2.46037,2.84885 0.74132,5.64306 2.73598,-3.10784 1.48264,-0.33739 c 0.63578,1.41183 2.1591,2.0418 3.94421,2.04813 2.61595,-0.09 4.44922,-2.02369 4.48475,-3.90144 0.0925,-4.37958 -0.7959,-13.31806 -2.29762,-13.93419 -0.73088,-0.25894 -1.77156,-0.65739 -2.43305,-0.6736 z m -195.796323,1.52061 c -3.25344,0.0314 -5.19684,3.66623 -5.359119,5.45416 l -0.988426,9.87594 c 0.02242,0.9369 3.282215,3.41166 3.460685,1.95785 l 1.24622,-11.51778 c 0.27363,-1.56745 2.75747,-1.32204 2.60175,0.009 l -0.94804,10.40342 c -0.2427,2.12631 0.56283,2.83132 2.00893,2.9831 l 3.64839,0.14731 c 0.93167,0.0617 1.44863,-0.0897 1.55748,-0.9706 l 0.28869,-1.91983 c 0.16173,-0.94558 -0.41362,-1.27074 -1.26761,-1.32464 l -1.23078,-0.1081 c -0.5872,-0.0111 -0.84068,-0.0562 -0.81617,-0.67123 l 0.85656,-8.6915 c 0.26926,-2.13837 -2.06162,-5.62579 -5.05856,-5.62761 z m 167.484803,79.49821 c -0.12719,-0.006 -0.24126,0.0374 -0.33621,0.14494 l -8.53587,8.87921 c -0.42769,0.48125 -0.588,1.05449 -0.0119,1.57055 l 8.40043,8.07017 c 0.75443,0.76917 1.40562,0.74392 1.77014,0.33383 l 7.81118,-8.10462 c 0.65997,-0.61566 -0.44801,-4.99438 -1.16663,-4.26615 l -6.5507,6.65287 c -1.19791,0.26842 -1.81727,-0.33538 -1.36027,-1.37929 l 4.87798,-4.94926 c 0.73275,-0.77478 -0.67291,-3.64083 -1.26642,-3.06507 l -5.81532,6.00659 c -0.98478,0.25298 -1.68753,-0.0375 -1.33177,-1.2581 l 5.24389,-5.39002 c 0.64788,-0.67288 -0.83826,-3.20047 -1.72856,-3.24565 z M 54.480577,185.7738 c -1.35256,-0.0505 -3.83094,0.72654 -3.01399,1.59194 l 8.07255,8.30777 c 1.03224,1.21089 -0.74094,2.96781 -1.66679,1.99823 l -7.40607,-7.36924 c -1.48227,-1.54369 -2.53866,-1.37297 -3.57829,-0.3564 l -2.44136,2.7146 c -0.64199,0.67799 -0.85589,1.17294 -0.24711,1.81885 l 1.29493,1.447 c 0.62485,0.72791 1.24192,0.49245 1.82835,-0.13068 l 0.86844,-0.87794 c 0.38322,-0.44504 0.58043,-0.61092 1.03832,-0.19958 l 6.14559,6.20498 c 1.47462,1.57183 5.64674,2.00218 7.56051,-0.30413 2.05185,-2.52505 0.49254,-6.33981 -0.78052,-7.60566 l -6.97245,-7.06392 c -0.13793,-0.10886 -0.38998,-0.16417 -0.70211,-0.17582 z m 14.39158,12.3577 c -0.28481,0.004 -0.53806,0.13061 -0.71875,0.42174 l -6.60891,9.14651 c -0.88083,1.12637 -0.96521,2.56503 0.002,3.26228 l 8.06185,4.73067 c 1.78517,0.75037 3.25835,0.79732 4.88748,-1.16781 0.61034,-0.68827 -4.58678,-3.00399 -6.4711,-4.40872 -0.97768,-0.80645 -1.97014,-1.3232 -1.25811,-2.38909 l 4.202,-5.9365 c 0.96003,-1.36879 -0.86268,-3.6751 -2.09684,-3.65908 z m 111.165883,1.25217 c -0.49674,0.017 -0.9711,0.13122 -1.38997,0.34333 -3.91244,1.97033 -11.392,6.94307 -11.23266,8.55844 0.18196,1.2272 0.42038,3.32415 1.27949,2.79183 3.79016,-2.32005 7.60849,-4.66255 10.53054,-6.92849 0.7785,-0.54758 2.02881,2.00035 1.31988,2.42949 -3.29773,2.01159 -6.251,4.095 -9.46608,6.27152 -0.91135,0.73744 -0.96157,2.14148 -0.4063,2.73956 l 3.68521,4.07369 3.16843,-2.37365 -2.12654,-2.61244 5.54802,-3.79926 3.66977,0.83873 4.638,-3.29911 -4.02855,-0.9611 -0.99199,-1.15119 c 0.94938,-1.22319 0.79162,-2.86316 -0.0392,-4.44316 -0.97892,-1.70163 -2.66783,-2.52902 -4.15804,-2.47819 z m -96.505813,8.24005 c -0.34516,0.0215 -0.64376,0.20911 -0.81973,0.65935 l -4.61543,10.69567 c -0.45617,0.97606 -0.20528,1.57712 0.30651,1.77489 l 10.32739,4.47762 c 0.80783,0.4025 4.5216,-2.1683 3.5878,-2.5863 l -8.52637,-3.8052 c -0.67103,-1.02799 -0.32286,-1.82063 0.81498,-1.75826 l 6.34518,2.8346 c 0.98237,0.41492 3.17429,-1.90419 2.4271,-2.25842 l -7.66386,-3.34307 c -0.58191,-0.83377 -0.55625,-1.59383 0.71162,-1.68816 l 6.88572,3.02349 c 0.97965,0.42413 3.25325,-2.6111 2.18119,-3.02111 l -11.30631,-4.88392 c -0.22522,-0.087 -0.44869,-0.13407 -0.65579,-0.12118 z m 78.241313,1.31513 c -1.16387,0.002 -3.31762,1.99383 -2.69204,3.30743 1.14161,2.72508 1.64096,3.70591 1.89726,6.01728 0.17333,2.13578 -6.44757,5.21668 -8.24006,3.11021 -1.4314,-1.79226 -2.26861,-3.75252 -3.02586,-6.61247 -0.61956,-1.29025 -4.53144,-1.47396 -4.29942,0.23047 0.79176,4.63408 2.9126,9.29067 5.1037,10.24898 3.0052,1.13178 5.64042,0.87843 8.404,0.0202 2.86981,-0.93278 4.46394,-1.63617 6.2929,-4.89462 1.40722,-2.27908 -1.27391,-8.037 -2.83816,-11.0794 -0.11684,-0.24412 -0.33374,-0.34867 -0.60232,-0.34809 z m -51.74982,6.27745 c -0.70277,0.007 -1.46669,0.34726 -2.15148,1.08823 l -9.586083,9.22372 c -1.13707,1.15632 1.977293,4.39987 3.126853,3.22308 l 7.2742,-6.68257 1.97447,1.21653 c 1.25217,1.09963 1.09557,2.81926 -0.2471,2.69798 l -4.36713,-0.36235 -3.13042,2.66234 c -0.77319,0.96734 16.98275,3.66182 16.05599,1.95071 l -6.83701,-13.52908 c -0.40565,-0.95267 -1.20872,-1.49692 -2.11229,-1.48859 z m 30.95367,0.38373 c -5.01775,0.0143 -13.00883,1.1511 -14.21457,1.78202 -3.23101,2.00173 -1.91156,8.2863 0.45857,7.8195 3.32397,-0.58643 7.44658,-0.61847 11.89913,0.15088 l -0.76864,1.26523 -10.45333,1.36027 c -0.97728,0.10835 -3.40633,3.32661 -2.0208,3.23259 4.769,-0.19888 8.40308,-0.0176 13.3687,-1.04664 2.85196,-0.5013 5.49003,-5.29679 2.52928,-7.74941 -1.60541,-1.2617 -7.47413,-0.92631 -11.71024,-0.44669 -0.82498,0.0687 0.065,-1.55243 1.06565,-1.90557 l 8.67249,-1.26642 c 1.22146,-0.33602 3.38303,-3.07915 2.13485,-3.18387 -0.30519,-0.009 -0.62658,-0.0128 -0.96109,-0.0119 z" />
</svg>