<svg width="200" height="360" viewBox="0 0 200 360" xml:space="preserve" xmlns:xlink="http://www.w3.org/1999/xlink" xmlns="http://www.w3.org/2000/svg">
   <defs
     id="defs4550"><rect
       x="160.60497"
       y="461.39114"
       width="469.74631"
       height="219.09116"
       id="rect6444" /><linearGradient
       id="linearGradient6260"><stop
         style="stop-color:#fcc12a;stop-opacity:1;"
         offset="0"
         id="stop6256" /><stop
         style="stop-color:#fce8b7;stop-opacity:1;"
         offset="1"
         id="stop6258" /></linearGradient><radialGradient
       xlink:href="#linearGradient6260"
       id="radialGradient6264"
       cx="393.9137"
       cy="465.31827"
       fx="393.9137"
       fy="465.31827"
       r="114.65936"
       gradientTransform="matrix(0.82635104,-0.00831374,0.00549643,0.52713463,-228.92061,-158.13749)"
       gradientUnits="userSpaceOnUse" /><filter
       style="color-interpolation-filters:sRGB"
       id="filter6337"
       x="-0.079555566"
       y="-0.42375954"
       width="1.1591111"
       height="1.8475191"><feGaussianBlur
         stdDeviation="4.2123021"
         id="feGaussianBlur6339" /></filter><filter
       style="color-interpolation-filters:sRGB"
       id="filter6337-7"
       x="-0.079555566"
       y="-0.42375954"
       width="1.1591111"
       height="1.8475191"><feGaussianBlur
         stdDeviation="4.2123021"
         id="feGaussianBlur6339-1" /></filter><filter
       style="color-interpolation-filters:sRGB"
       id="filter6337-3"
       x="-0.077199395"
       y="-0.16406612"
       width="1.1543988"
       height="1.3281322"><feGaussianBlur
         stdDeviation="4.2123021"
         id="feGaussianBlur6339-7" /></filter></defs><path
     d="m 344.29196,647.69462 c -12.77138,0.0251 -13.99182,-23.75856 0.1289,-23.85673 l 106.70882,0.002 c 13.86925,-0.15281 13.73612,23.79782 -1.15486,23.81923 z"
     style="mix-blend-mode:normal;fill:#4a4a4a;filter:url(#filter6337)"
     id="path6274-95"
     transform="matrix(0.75703219,0,0,0.82668232,-202.41336,-267.24359)" /><path
     d="m 344.29196,647.69462 c -12.77138,0.0251 -13.99182,-23.75856 0.1289,-23.85673 l 106.70882,0.002 c 13.86925,-0.15281 13.73612,23.79782 -1.15486,23.81923 z"
     style="mix-blend-mode:normal;fill:#4a4a4a;filter:url(#filter6337-7)"
     id="path6274-95-6"
     transform="matrix(0.75703219,0,0,0.82668232,-201.69116,-239.16729)" /><path
     d="m 341.66619,630.12766 c -12.77138,0.0251 -14.81238,-24.0538 -0.69166,-24.15197 l 110.97571,0.29724 c 13.86925,-0.15281 13.73612,23.79782 -1.15486,23.81923 l -12.61884,-0.14262 c -1.15401,50.27725 -84.55462,50.05115 -84.51724,0.17282 z"
     style="mix-blend-mode:normal;fill:#4a4a4a;filter:url(#filter6337-3)"
     id="path6274-95-7"
     transform="matrix(0.75703219,0,0,0.82668232,-201.41947,-200.24579)" /><path
     id="path6274"
     style="fill:#4a4a4a;stroke-width:0.750295"
     d="m 58.737616,248.76344 c -10.68983,0.073 -9.76594,17.7595 -0.0976,17.74084 l 80.005884,-0.0262 c 11.27294,-0.0158 11.3733,-17.82687 0.87384,-17.71325 z m -0.28981,26.69331 c -10.68982,0.073 -9.76446,17.75951 -0.0961,17.74083 l 80.004404,-0.0276 c 11.27294,-0.0159 11.37329,-17.82542 0.87384,-17.7118 z m 0,26.48126 c -10.68982,0.073 -9.76446,17.75949 -0.0961,17.74083 l 9.38897,-0.0654 c -0.39393,39.26007 61.037674,40.12057 61.559144,0.0421 l 9.05629,-0.003 c 11.27294,-0.0159 11.37329,-17.82686 0.87384,-17.71322 z" /><path
     d="M 15.825816,90.61921 C 16.007406,-30.24461 189.60304,-30.15846 189.42735,90.59001 Z"
     style="fill:url(#radialGradient6264);fill-opacity:1;stroke-width:0.750295"
     id="path5855" /><text
     xml:space="preserve"
     id="text6442"
     style="font-style:normal;font-variant:normal;font-weight:bold;font-stretch:normal;font-size:86.6667px;font-family:Ebrima;-inkscape-font-specification:'Ebrima, Bold';font-variant-ligatures:normal;font-variant-caps:normal;font-variant-numeric:normal;font-variant-east-asian:normal;text-align:center;white-space:pre;shape-inside:url(#rect6444);fill:#000000;stroke-width:0;stroke-linecap:square;stroke-miterlimit:3;paint-order:markers stroke fill"
     transform="matrix(0.75703219,0,0,0.74361895,-201.00778,-247.81155)"><tspan
       x="262.38927"
       y="538.34712"
       id="tspan6529">QUICK
</tspan><tspan
       x="305.44755"
       y="646.6805"
       id="tspan6531">TIPS</tspan></text></svg>
